# xmcd CD database file
#
# Track frame offsets:
#	150
#	13829
#	28242
#	43441
#	66767
#	88218
#	111320
#	128161
#	145813
#	160170
#	173096
#	185834
#	207886
#	220495
#	232052
#	252282
#	283417
#	299966
#	319695
#
# Disc length: 4440 seconds
#
# Revision: 0
# Processed by: cddbd v1.5.2PL0 Copyright (c) Steve Scherf et al.
# Submitted via: CDex 1.70beta2
#
DISCID=3f115613
DTITLE=Buenas Costumbres - Buenas Costumbres
DYEAR=2012
DGENRE=Salsa
TTITLE0=Quizà quizà
TTITLE1=El Carretero
TTITLE2=Chan chan
TTITLE3=Son de la loma
TTITLE4=El cuarto de tula
TTITLE5=Candela
TTITLE6=Somos cantantes
TTITLE7=Boogie
TTITLE8=For police
TTITLE9=Skaciamoscas
TTITLE10=Cancione triste
TTITLE11=Circullo del amor
TTITLE12=Drum and bass
TTITLE13=Funk
TTITLE14=Rumba del disperso
TTITLE15=Dragone magnetico
TTITLE16=Sol per badu
TTITLE17=Teknologie primitive
TTITLE18=Doc base
EXTD=YEAR: 2012
EXTT0=
EXTT1=
EXTT2=
EXTT3=
EXTT4=
EXTT5=
EXTT6=
EXTT7=
EXTT8=
EXTT9=
EXTT10=
EXTT11=
EXTT12=
EXTT13=
EXTT14=
EXTT15=
EXTT16=
EXTT17=
EXTT18=
PLAYORDER=
